<?xml version="1.0" encoding="UTF-8" standalone="no"?>
<svg
   viewBox="0 0 38.000089 42.000031"
   width="380.00089"
   height="420.00031"
   version="1.1"
   id="svg10"
   sodipodi:docname="logo.svg"
   inkscape:version="1.1.1 (3bf5ae0d25, 2021-09-20)"
   xmlns:inkscape="http://www.inkscape.org/namespaces/inkscape"
   xmlns:sodipodi="http://sodipodi.sourceforge.net/DTD/sodipodi-0.dtd"
   xmlns="http://www.w3.org/2000/svg"
   xmlns:svg="http://www.w3.org/2000/svg"
   xmlns:rdf="http://www.w3.org/1999/02/22-rdf-syntax-ns#"
   xmlns:cc="http://creativecommons.org/ns#"
   xmlns:dc="http://purl.org/dc/elements/1.1/">
  <metadata
     id="metadata16">
    <rdf:RDF>
      <cc:Work
         rdf:about="">
        <dc:format>image/svg+xml</dc:format>
        <dc:type
           rdf:resource="http://purl.org/dc/dcmitype/StillImage" />
      </cc:Work>
    </rdf:RDF>
  </metadata>
  <defs
     id="defs14" />
  <sodipodi:namedview
     pagecolor="#ffffff"
     bordercolor="#666666"
     borderopacity="1"
     objecttolerance="10"
     gridtolerance="10"
     guidetolerance="10"
     inkscape:pageopacity="0"
     inkscape:pageshadow="2"
     inkscape:window-width="939"
     inkscape:window-height="1030"
     id="namedview12"
     showgrid="false"
     fit-margin-top="0"
     fit-margin-left="0"
     fit-margin-right="0"
     fit-margin-bottom="0"
     inkscape:zoom="1.4895833"
     inkscape:cx="193.67833"
     inkscape:cy="222.54546"
     inkscape:window-x="967"
     inkscape:window-y="12"
     inkscape:window-maximized="1"
     inkscape:current-layer="svg10"
     inkscape:pagecheckerboard="0" />
  <path
     fill="#283593"
     fill-rule="evenodd"
     d="m 17.903,0.28628166 c 0.679,-0.381 1.515,-0.381 2.193,0 C 23.451,2.1692817 33.547,7.8372817 36.903,9.7202817 37.582,10.100282 38,10.804282 38,11.566282 c 0,3.766 0,15.101 0,18.867 0,0.762 -0.418,1.466 -1.097,1.847 -3.355,1.883 -13.451,7.551 -16.807,9.434 -0.679,0.381 -1.515,0.381 -2.193,0 -3.355,-1.883 -13.451,-7.551 -16.807,-9.434 -0.678,-0.381 -1.096,-1.084 -1.096,-1.846 0,-3.766 0,-15.101 0,-18.867 0,-0.762 0.418,-1.466 1.097,-1.8470003 3.354,-1.883 13.452,-7.551 16.806,-9.43400004 z"
     clip-rule="evenodd"
     id="path2"
     style="fill:#aa0000;fill-opacity:1" />
  <path
     fill="#5c6bc0"
     fill-rule="evenodd"
     d="m 0.304,31.404282 c -0.266,-0.356 -0.304,-0.694 -0.304,-1.149 0,-3.744 0,-15.014 0,-18.759 0,-0.758 0.417,-1.458 1.094,-1.8360003 3.343,-1.872 13.405,-7.507 16.748,-9.38000004 0.677,-0.379 1.594,-0.371 2.271,0.008 3.343,1.87200004 13.371,7.45900004 16.714,9.33100004 0.27,0.152 0.476,0.335 0.66,0.5760003 z"
     clip-rule="evenodd"
     id="path4"
     style="fill:#ff0000;fill-opacity:1" />
  <path
     fill="#ffffff"
     fill-rule="evenodd"
     d="m 19,7.0002817 c 7.727,0 14,6.2730003 14,14.0000003 0,7.727 -6.273,14 -14,14 -7.727,0 -14,-6.273 -14,-14 0,-7.727 6.273,-14.0000003 14,-14.0000003 z m 0,7.0000003 c 3.863,0 7,3.136 7,7 0,3.863 -3.137,7 -7,7 -3.863,0 -7,-3.137 -7,-7 0,-3.864 3.136,-7 7,-7 z"
     clip-rule="evenodd"
     id="path6" />
  <path
     fill="#3949ab"
     fill-rule="evenodd"
     d="m 37.487,10.195282 c 0.516,0.483 0.506,1.211 0.506,1.784 0,3.795 -0.032,14.589 0.009,18.384 0.004,0.396 -0.127,0.813 -0.323,1.127 l -19.084,-10.5 z"
     clip-rule="evenodd"
     id="path8"
     style="fill:#800000;fill-opacity:1" />
  <g
     transform="matrix(7.784092e-4,0,0,-7.7862971e-4,26.686311,25.765641)"
     fill="#000000"
     stroke="none"
     id="g141"
     style="fill:#ffffff">
    <path
       d="m 6760,12443 c -137,-26 -302,-163 -453,-375 -207,-293 -384,-645 -802,-1598 -347,-790 -486,-1070 -667,-1337 -211,-311 -357,-373 -878,-374 -303,0 -573,22 -1315,106 -310,36 -666,73 -930,97 -191,17 -792,17 -905,0 -359,-56 -525,-174 -538,-382 -7,-128 43,-265 161,-442 197,-294 514,-612 1317,-1323 955,-845 1247,-1174 1290,-1452 37,-234 -95,-656 -453,-1458 -364,-816 -430,-963 -490,-1110 -252,-611 -352,-998 -318,-1236 31,-222 145,-333 357,-346 311,-21 768,169 1699,704 749,431 885,508 1051,596 451,240 718,338 924,341 121,1 161,-10 310,-84 265,-133 574,-380 1300,-1040 C 8426,814 8825,524 9172,454 c 102,-21 173,-13 255,27 103,50 160,135 204,304 21,81 23,111 23,315 0,125 -5,267 -12,320 -51,379 -107,674 -253,1335 -229,1034 -279,1327 -279,1647 0,162 16,260 55,346 101,221 462,490 1275,952 661,375 831,473 1005,578 739,446 1065,761 1065,1027 0,155 -96,273 -306,378 -300,150 -748,236 -1764,342 -1052,108 -1334,148 -1637,225 -387,100 -514,201 -648,515 -117,276 -211,629 -391,1482 -135,644 -212,973 -289,1237 -115,398 -240,668 -380,824 -94,105 -221,156 -335,135 z"
       id="path139"
       style="fill:#ffffff" />
  </g>
</svg>
